<svg xmlns="http://www.w3.org/2000/svg" xmlns:xlink="http://www.w3.org/1999/xlink" width="500" zoomAndPan="magnify" viewBox="0 0 375 374.999991" height="500" preserveAspectRatio="xMidYMid meet" version="1.0"><defs><clipPath id="id1"><path d="M 0 12.273438 L 375 12.273438 L 375 337.773438 L 0 337.773438 Z M 0 12.273438 " clip-rule="nonzero"/></clipPath></defs><g clip-path="url(#id1)"><path fill="#000000" d="M 46.152344 258.75 L 0 337.664062 L 30.769531 337.664062 L 46.152344 310.71875 L 75 258.75 L 90.382812 231.800781 L 151.921875 231.800781 L 167.308594 204.855469 L 186.539062 170.210938 L 201.921875 143.265625 L 186.539062 118.242188 L 171.152344 91.296875 L 157.691406 64.351562 L 142.308594 91.296875 L 94.230469 174.058594 L 75 204.855469 L 59.617188 231.800781 Z M 282.691406 337.664062 L 375 337.664062 L 359.617188 310.71875 L 238.460938 310.71875 L 223.078125 283.769531 L 209.617188 260.671875 L 207.691406 258.75 L 105.769531 258.75 L 90.382812 283.769531 L 75 310.71875 L 59.617188 337.664062 Z M 207.691406 310.71875 L 105.769531 310.71875 L 121.152344 283.769531 L 192.308594 283.769531 Z M 232.691406 91.296875 L 186.539062 12.382812 L 171.152344 39.328125 L 186.539062 64.351562 L 217.308594 118.242188 L 232.691406 143.265625 L 217.308594 170.210938 L 203.847656 193.308594 L 201.921875 197.15625 L 217.308594 222.179688 L 238.460938 258.75 L 253.847656 283.769531 L 344.230469 283.769531 L 328.847656 258.75 L 280.769531 174.058594 L 263.460938 143.265625 L 248.078125 118.242188 Z M 248.078125 170.210938 L 298.078125 258.75 L 267.308594 258.75 L 232.691406 197.15625 Z M 105.769531 204.855469 L 157.691406 118.242188 L 171.152344 143.265625 L 136.539062 204.855469 Z M 105.769531 204.855469 " fill-opacity="1" fill-rule="evenodd"/></g></svg>