<svg xmlns="http://www.w3.org/2000/svg" xmlns:xlink="http://www.w3.org/1999/xlink" width="500" zoomAndPan="magnify" viewBox="0 0 375 374.999991" height="500" preserveAspectRatio="xMidYMid meet" version="1.0"><defs><clipPath id="id1"><path d="M 23.171875 45 L 351.671875 45 L 351.671875 329.984375 L 23.171875 329.984375 Z M 23.171875 45 " clip-rule="nonzero"/></clipPath></defs><g clip-path="url(#id1)"><path fill="#ffffff" d="M 63.601562 260.792969 L 23.171875 329.886719 L 50.125 329.886719 L 63.601562 306.292969 L 88.871094 260.792969 L 102.347656 237.199219 L 156.257812 237.199219 L 169.734375 213.605469 L 186.578125 183.269531 L 200.058594 159.675781 L 186.578125 137.769531 L 173.101562 114.175781 L 161.3125 90.582031 L 147.832031 114.175781 L 105.71875 186.640625 L 88.871094 213.605469 L 75.394531 237.199219 Z M 270.8125 329.886719 L 351.671875 329.886719 L 338.195312 306.292969 L 232.0625 306.292969 L 218.585938 282.699219 L 206.796875 262.476562 L 205.109375 260.792969 L 115.824219 260.792969 L 102.347656 282.699219 L 75.394531 329.886719 Z M 205.109375 306.292969 L 115.824219 306.292969 L 129.304688 282.699219 L 191.632812 282.699219 Z M 227.011719 114.175781 L 186.578125 45.078125 L 173.101562 68.671875 L 186.578125 90.582031 L 213.535156 137.769531 L 227.011719 159.675781 L 213.535156 183.269531 L 201.742188 203.492188 L 200.058594 206.863281 L 213.535156 228.773438 L 232.0625 260.792969 L 245.542969 282.699219 L 324.71875 282.699219 L 311.242188 260.792969 L 269.125 186.640625 L 253.964844 159.675781 L 240.488281 137.769531 Z M 240.488281 183.269531 L 284.289062 260.792969 L 257.332031 260.792969 L 227.011719 206.863281 Z M 115.824219 213.605469 L 161.3125 137.769531 L 173.101562 159.675781 L 142.78125 213.605469 Z M 115.824219 213.605469 " fill-opacity="1" fill-rule="evenodd"/></g></svg>